<?xml version="1.0" encoding="UTF-8"?>
<!DOCTYPE svg PUBLIC "-//W3C//DTD SVG 1.1//EN" "http://www.w3.org/Graphics/SVG/1.1/DTD/svg11.dtd">
<svg xmlns="http://www.w3.org/2000/svg" version="1.1" width="1080px" height="1080px" style="shape-rendering:geometricPrecision; text-rendering:geometricPrecision; image-rendering:optimizeQuality; fill-rule:evenodd; clip-rule:evenodd" xmlns:xlink="http://www.w3.org/1999/xlink">
<g><path style="opacity:1" fill="#fefefe" d="M -0.5,-0.5 C 359.5,-0.5 719.5,-0.5 1079.5,-0.5C 1079.5,359.5 1079.5,719.5 1079.5,1079.5C 719.5,1079.5 359.5,1079.5 -0.5,1079.5C -0.5,719.5 -0.5,359.5 -0.5,-0.5 Z"/></g>
<g><path style="opacity:1" fill="#0e0e0e" d="M 393.5,329.5 C 394.877,336.156 395.877,342.823 396.5,349.5C 395.89,350.391 395.557,351.391 395.5,352.5C 393.933,358.253 393.1,364.253 393,370.5C 385.292,385.582 374.958,398.582 362,409.5C 361.26,410.749 361.427,411.749 362.5,412.5C 362.896,415.721 364.229,418.388 366.5,420.5C 367.338,420.842 367.672,421.508 367.5,422.5C 369.974,429.922 372.64,437.256 375.5,444.5C 377.567,451.217 379.567,457.884 381.5,464.5C 381.721,467.067 382.388,469.401 383.5,471.5C 384.742,476.91 386.742,481.91 389.5,486.5C 389.992,488.819 390.992,490.819 392.5,492.5C 393.29,493.609 393.79,494.942 394,496.5C 397.434,500.77 401.601,504.103 406.5,506.5C 408.515,507.924 410.848,508.59 413.5,508.5C 425.809,511.005 437.475,509.338 448.5,503.5C 451.096,502.735 453.763,502.401 456.5,502.5C 458.818,502.818 460.152,504.152 460.5,506.5C 459.964,508.942 459.131,511.275 458,513.5C 440.576,526.282 422.743,526.782 404.5,515C 399.006,510.505 393.839,505.672 389,500.5C 384.233,491.956 380.233,482.956 377,473.5C 374.367,464.394 371.534,455.394 368.5,446.5C 368.829,443.772 368.163,441.438 366.5,439.5C 366.59,436.848 365.924,434.515 364.5,432.5C 361.987,427.649 359.654,422.649 357.5,417.5C 355.926,416.369 354.259,416.202 352.5,417C 347.305,421.366 342.305,425.866 337.5,430.5C 336.011,434.236 335.344,438.236 335.5,442.5C 330.957,462.347 324.124,481.347 315,499.5C 303.081,517.876 286.581,530.043 265.5,536C 260.146,536.529 254.813,536.362 249.5,535.5C 248.599,533.273 246.933,532.273 244.5,532.5C 244.405,530.214 243.738,528.214 242.5,526.5C 250.305,513.333 261.805,505.666 277,503.5C 279.051,503.423 280.884,503.923 282.5,505C 281.21,507.292 279.543,509.292 277.5,511C 272.066,514.468 266.899,518.301 262,522.5C 261.039,525.375 261.872,527.375 264.5,528.5C 265.492,530.026 266.992,530.693 269,530.5C 270.385,530.486 271.551,530.152 272.5,529.5C 285.706,524.805 296.54,516.805 305,505.5C 310.827,495.18 316.16,484.513 321,473.5C 320.589,467.482 322.255,462.148 326,457.5C 327.744,450.11 329.577,442.777 331.5,435.5C 330.127,435.343 328.793,435.51 327.5,436C 318.377,442.788 309.544,449.954 301,457.5C 299.579,459.405 298.412,461.405 297.5,463.5C 296.542,463.953 295.708,464.619 295,465.5C 294.294,469.887 294.46,474.22 295.5,478.5C 294.181,479.897 292.514,480.563 290.5,480.5C 288.159,479.818 285.826,479.151 283.5,478.5C 284.394,473.48 286.061,468.813 288.5,464.5C 289.117,464.389 289.617,464.056 290,463.5C 290.737,459.793 291.571,456.127 292.5,452.5C 301.529,438.958 313.195,428.125 327.5,420C 329.607,418.736 330.607,416.903 330.5,414.5C 331.35,405.178 331.517,395.845 331,386.5C 330.292,385.619 329.458,384.953 328.5,384.5C 328.363,378.808 331.029,375.974 336.5,376C 338.636,380.942 341.636,385.109 345.5,388.5C 347.167,391.833 348.833,395.167 350.5,398.5C 352.074,399.631 353.741,399.798 355.5,399C 364.281,390.55 372.781,381.716 381,372.5C 382.139,368.888 383.806,365.554 386,362.5C 386.29,360.08 386.79,357.746 387.5,355.5C 390.167,353.5 390.167,351.5 387.5,349.5C 390.576,342.353 389.743,335.687 385,329.5C 384.167,325 386,323.167 390.5,324C 392.148,325.462 393.148,327.295 393.5,329.5 Z"/></g>
<g><path style="opacity:1" fill="#111111" d="M 577.5,357.5 C 575.796,360.939 574.462,364.605 573.5,368.5C 572.531,370.663 571.698,372.996 571,375.5C 567.069,380.631 562.069,384.298 556,386.5C 555.833,388.167 555.667,389.833 555.5,391.5C 558.652,405.386 561.152,419.386 563,433.5C 565.377,448.222 571.543,461.055 581.5,472C 586.41,474.857 591.41,477.524 596.5,480C 601.442,481.328 606.442,481.661 611.5,481C 613.424,478.915 614.424,476.415 614.5,473.5C 613.532,468.176 613.032,462.843 613,457.5C 614.667,456.5 616.333,455.5 618,454.5C 625.129,460.235 628.129,467.569 627,476.5C 626.07,478.552 624.57,480.052 622.5,481C 611.629,486.273 600.629,486.273 589.5,481C 580.883,477.716 574.05,472.216 569,464.5C 567.416,459.734 565.083,455.4 562,451.5C 561.074,444.908 559.407,438.575 557,432.5C 556.023,427.207 555.523,421.874 555.5,416.5C 555.192,412.64 554.525,408.974 553.5,405.5C 551.988,400.808 550.655,395.975 549.5,391C 544.698,390.712 540.531,392.212 537,395.5C 534.302,403.238 531.302,410.905 528,418.5C 521.511,426.655 514.677,434.488 507.5,442C 500.949,443.973 494.282,444.64 487.5,444C 485.081,442.491 484.081,440.325 484.5,437.5C 489.657,437.92 494.824,438.254 500,438.5C 502.321,438.091 504.487,437.257 506.5,436C 518.797,424.886 527.131,411.386 531.5,395.5C 524.209,397.557 516.876,399.724 509.5,402C 502.474,406.688 498.308,413.188 497,421.5C 494.287,425.638 490.453,427.638 485.5,427.5C 485.5,425.833 485.5,424.167 485.5,422.5C 487.117,419.811 488.117,416.811 488.5,413.5C 493.539,408.792 498.539,404.125 503.5,399.5C 513.584,396.478 523.584,393.144 533.5,389.5C 534.314,387.234 534.814,384.9 535,382.5C 535.328,374.561 535.495,366.727 535.5,359C 537.833,358.333 540.167,358.333 542.5,359C 545.184,362.029 547.517,365.362 549.5,369C 549.167,370 548.833,371 548.5,372C 549.957,375.175 550.957,378.509 551.5,382C 553.259,382.798 554.926,382.631 556.5,381.5C 559.667,378.5 562.833,375.5 566,372.5C 566.29,370.08 566.79,367.746 567.5,365.5C 568.891,360.358 569.891,355.025 570.5,349.5C 570.145,348.478 569.478,347.811 568.5,347.5C 567.703,340.848 567.036,334.181 566.5,327.5C 569.545,327.342 572.379,328.009 575,329.5C 575.636,333.226 576.803,336.726 578.5,340C 577.566,345.785 577.232,351.618 577.5,357.5 Z"/></g>
<g><path style="opacity:1" fill="#686868" d="M 393.5,329.5 C 395.289,332.152 396.289,335.152 396.5,338.5C 396.5,342.167 396.5,345.833 396.5,349.5C 395.877,342.823 394.877,336.156 393.5,329.5 Z"/></g>
<g><path style="opacity:1" fill="#bdbdbd" d="M 396.5,338.5 C 397.647,342.646 397.814,346.98 397,351.5C 396.617,352.056 396.117,352.389 395.5,352.5C 395.557,351.391 395.89,350.391 396.5,349.5C 396.5,345.833 396.5,342.167 396.5,338.5 Z"/></g>
<g><path style="opacity:1" fill="#a1a1a1" d="M 387.5,349.5 C 390.167,351.5 390.167,353.5 387.5,355.5C 387.5,353.5 387.5,351.5 387.5,349.5 Z"/></g>
<g><path style="opacity:1" fill="#7b7b7b" d="M 577.5,357.5 C 577.323,361.708 575.99,365.374 573.5,368.5C 574.462,364.605 575.796,360.939 577.5,357.5 Z"/></g>
<g><path style="opacity:1" fill="#131313" d="M 720.5,423.5 C 719.594,426.436 718.928,429.436 718.5,432.5C 718.249,436.331 719.416,439.664 722,442.5C 728.081,446 732.081,444.334 734,437.5C 736.333,436.587 738.166,435.087 739.5,433C 742.5,432.333 745.5,432.333 748.5,433C 749.942,433.377 750.942,434.21 751.5,435.5C 751.606,438.079 750.939,440.412 749.5,442.5C 744.137,444.509 739.47,447.509 735.5,451.5C 736.781,456.564 739.448,460.731 743.5,464C 760.767,465.292 778.101,465.959 795.5,466C 800.56,467.181 805.56,468.515 810.5,470C 815.145,473.079 820.145,475.412 825.5,477C 826.066,477.995 826.733,478.828 827.5,479.5C 828.444,481.688 830.111,483.021 832.5,483.5C 833.29,484.401 834.29,485.068 835.5,485.5C 835.66,487.199 835.494,488.866 835,490.5C 833.624,491.705 832.458,493.038 831.5,494.5C 828.575,494.54 825.909,493.707 823.5,492C 819.534,489.036 815.867,485.703 812.5,482C 804.712,476.551 796.046,473.551 786.5,473C 773.112,472.454 759.779,471.454 746.5,470C 742.034,468.266 738.034,465.766 734.5,462.5C 732.209,458.254 730.209,453.921 728.5,449.5C 725.839,448.668 723.172,447.834 720.5,447C 717.238,443.634 714.238,440.134 711.5,436.5C 706.198,442.652 699.531,445.819 691.5,446C 688.906,443.914 686.906,441.414 685.5,438.5C 684.299,433.354 682.965,428.354 681.5,423.5C 677.329,423.745 672.996,423.411 668.5,422.5C 668.849,431.448 664.515,435.781 655.5,435.5C 648.862,435.026 644.362,431.692 642,425.5C 640.56,419.805 641.726,414.805 645.5,410.5C 645.113,409.28 644.28,408.613 643,408.5C 634.38,411.166 626.213,414.666 618.5,419C 610.203,420.351 601.87,420.684 593.5,420C 590.751,419.636 588.751,418.303 587.5,416C 589.639,405.138 589.639,394.305 587.5,383.5C 587.756,382.311 588.089,381.144 588.5,380C 587.746,375.205 587.246,370.372 587,365.5C 583.956,362.664 584.789,361.831 589.5,363C 590.333,363.833 591.167,364.667 592,365.5C 593.463,376.856 593.963,388.189 593.5,399.5C 596.725,398.478 599.891,397.144 603,395.5C 606.991,396.608 610.825,398.108 614.5,400C 617.972,404.311 618.305,408.811 615.5,413.5C 618.568,413.453 621.568,412.953 624.5,412C 635.861,403.414 647.861,402.414 660.5,409C 662.714,411.925 665.047,414.759 667.5,417.5C 673.347,419.591 678.347,418.424 682.5,414C 685.868,412.795 688.202,413.795 689.5,417C 687.365,425.053 688.199,432.886 692,440.5C 692.893,441.081 693.893,441.415 695,441.5C 697.416,440.042 699.916,438.708 702.5,437.5C 706.66,432.5 710.66,427.334 714.5,422C 716.881,421.262 718.881,421.762 720.5,423.5 Z"/></g>
<g><path style="opacity:1" fill="#7d7d7d" d="M 568.5,347.5 C 569.478,347.811 570.145,348.478 570.5,349.5C 569.891,355.025 568.891,360.358 567.5,365.5C 568.165,359.523 568.498,353.523 568.5,347.5 Z"/></g>
<g><path style="opacity:1" fill="#e8e8e8" d="M 545.5,374.5 C 545.337,376.857 545.503,379.19 546,381.5C 546.383,382.056 546.883,382.389 547.5,382.5C 547.5,382.833 547.5,383.167 547.5,383.5C 546.191,386.451 543.857,387.784 540.5,387.5C 540.101,382.026 540.101,376.36 540.5,370.5C 543.344,370.343 545.011,371.676 545.5,374.5 Z"/></g>
<g><path style="opacity:1" fill="#636363" d="M 545.5,374.5 C 546.531,376.961 547.198,379.627 547.5,382.5C 546.883,382.389 546.383,382.056 546,381.5C 545.503,379.19 545.337,376.857 545.5,374.5 Z"/></g>
<g><path style="opacity:1" fill="#151515" d="M 425.5,395.5 C 425.799,397.455 426.799,398.789 428.5,399.5C 431.431,405.627 433.764,411.96 435.5,418.5C 436.552,418.649 437.552,418.483 438.5,418C 443.786,411.926 448.952,405.759 454,399.5C 455.961,396.865 458.461,395.031 461.5,394C 467.983,393.021 474.316,393.521 480.5,395.5C 484.295,398.98 484.961,402.814 482.5,407C 480.765,407.651 479.098,407.485 477.5,406.5C 476.185,404.024 474.518,401.857 472.5,400C 468.833,399.333 465.167,399.333 461.5,400C 455.364,405.956 449.698,412.29 444.5,419C 439.552,423.148 434.218,426.814 428.5,430C 425.425,431.007 422.258,431.507 419,431.5C 414.806,430.712 410.64,430.212 406.5,430C 403.018,434.993 398.351,438.16 392.5,439.5C 391.068,439.267 390.568,438.6 391,437.5C 394.812,434.031 398.645,430.698 402.5,427.5C 403.674,426.486 404.34,425.153 404.5,423.5C 405.794,422.71 406.961,421.71 408,420.5C 410.381,416.234 412.881,412.068 415.5,408C 414.328,403.687 414.328,399.354 415.5,395C 414.664,392.51 413.998,390.01 413.5,387.5C 415.584,386.752 417.584,386.752 419.5,387.5C 421.325,390.357 423.325,393.024 425.5,395.5 Z"/></g>
<g><path style="opacity:1" fill="#484848" d="M 547.5,383.5 C 548.518,385.352 549.851,387.019 551.5,388.5C 549.218,389.9 547.718,389.234 547,386.5C 544.984,388.608 542.817,388.942 540.5,387.5C 543.857,387.784 546.191,386.451 547.5,383.5 Z"/></g>
<g><path style="opacity:1" fill="#555555" d="M 338.5,393.5 C 339.884,392.199 341.384,392.199 343,393.5C 344.202,395.677 344.702,398.011 344.5,400.5C 343.932,396.932 341.932,394.599 338.5,393.5 Z"/></g>
<g><path style="opacity:1" fill="#e3e3e3" d="M 338.5,393.5 C 341.932,394.599 343.932,396.932 344.5,400.5C 347.719,401.021 348.719,402.688 347.5,405.5C 344.568,406.8 342.234,408.8 340.5,411.5C 338.994,412.747 337.494,412.747 336,411.5C 335.709,405.12 336.543,399.12 338.5,393.5 Z"/></g>
<g><path style="opacity:1" fill="#7f7f7f" d="M 425.5,395.5 C 427.201,396.211 428.201,397.545 428.5,399.5C 426.799,398.789 425.799,397.455 425.5,395.5 Z"/></g>
<g><path style="opacity:1" fill="#666666" d="M 328.5,384.5 C 329.458,384.953 330.292,385.619 331,386.5C 331.517,395.845 331.35,405.178 330.5,414.5C 329.5,408.001 329.5,401.335 330.5,394.5C 330.683,390.904 330.016,387.571 328.5,384.5 Z"/></g>
<g><path style="opacity:1" fill="#ececec" d="M 602.5,400.5 C 613.441,401.416 615.108,405.749 607.5,413.5C 603.22,414.744 598.886,415.244 594.5,415C 593.483,413.951 593.316,412.784 594,411.5C 596.378,407.374 599.211,403.708 602.5,400.5 Z"/></g>
<g><path style="opacity:1" fill="#f2f2f2" d="M 428.5,411.5 C 429.167,413.833 429.833,416.167 430.5,418.5C 430.487,421.863 428.821,424.03 425.5,425C 421.187,426.584 416.854,426.75 412.5,425.5C 411.386,424.277 411.219,422.944 412,421.5C 417.304,415.891 420.137,409.224 420.5,401.5C 422.903,401.393 424.736,402.393 426,404.5C 426.744,406.9 427.577,409.233 428.5,411.5 Z"/></g>
<g><path style="opacity:1" fill="#959595" d="M 553.5,405.5 C 554.525,408.974 555.192,412.64 555.5,416.5C 554.883,416.389 554.383,416.056 554,415.5C 553.502,412.183 553.335,408.85 553.5,405.5 Z"/></g>
<g><path style="opacity:1" fill="#ececec" d="M 650.5,412.5 C 652.857,412.337 655.19,412.503 657.5,413C 660.291,416.582 662.291,420.582 663.5,425C 661.282,431.652 656.949,433.319 650.5,430C 645.208,424.168 645.208,418.335 650.5,412.5 Z"/></g>
<g><path style="opacity:1" fill="#5c5c5c" d="M 428.5,411.5 C 430.141,412.871 431.141,414.704 431.5,417C 431.43,417.765 431.097,418.265 430.5,418.5C 429.833,416.167 429.167,413.833 428.5,411.5 Z"/></g>
<g><path style="opacity:1" fill="#8d8d8d" d="M 362.5,412.5 C 364.771,414.612 366.104,417.279 366.5,420.5C 364.229,418.388 362.896,415.721 362.5,412.5 Z"/></g>
<g><path style="opacity:1" fill="#838383" d="M 488.5,413.5 C 488.117,416.811 487.117,419.811 485.5,422.5C 485.933,419.834 486.433,417.168 487,414.5C 487.383,413.944 487.883,413.611 488.5,413.5 Z"/></g>
<g><path style="opacity:1" fill="#c8c8c8" d="M 338.5,422.5 C 342.276,422.469 342.443,423.136 339,424.5C 337.316,424.317 337.15,423.65 338.5,422.5 Z"/></g>
<g><path style="opacity:1" fill="#7c7c7c" d="M 404.5,423.5 C 404.34,425.153 403.674,426.486 402.5,427.5C 402.229,425.62 402.896,424.287 404.5,423.5 Z"/></g>
<g><path style="opacity:1" fill="#7c7c7c" d="M 367.5,422.5 C 371.797,429.122 374.464,436.455 375.5,444.5C 372.64,437.256 369.974,429.922 367.5,422.5 Z"/></g>
<g><path style="opacity:1" fill="#a8a8a8" d="M 720.5,423.5 C 722.213,424.635 722.88,426.302 722.5,428.5C 721.5,428.5 720.5,428.5 719.5,428.5C 719.768,430.099 719.434,431.432 718.5,432.5C 718.928,429.436 719.594,426.436 720.5,423.5 Z"/></g>
<g><path style="opacity:1" fill="#b8b8b8" d="M 681.5,423.5 C 682.965,428.354 684.299,433.354 685.5,438.5C 682.784,433.977 681.451,428.977 681.5,423.5 Z"/></g>
<g><path style="opacity:1" fill="#bcbcbc" d="M 337.5,430.5 C 338.089,434.971 337.423,438.971 335.5,442.5C 335.344,438.236 336.011,434.236 337.5,430.5 Z"/></g>
<g><path style="opacity:1" fill="#979797" d="M 364.5,432.5 C 365.924,434.515 366.59,436.848 366.5,439.5C 364.837,437.562 364.171,435.228 364.5,432.5 Z"/></g>
<g><path style="opacity:1" fill="#8d8d8d" d="M 751.5,435.5 C 752.622,437.288 752.789,439.288 752,441.5C 751.329,442.252 750.496,442.586 749.5,442.5C 750.939,440.412 751.606,438.079 751.5,435.5 Z"/></g>
<g><path style="opacity:1" fill="#999999" d="M 366.5,439.5 C 368.163,441.438 368.829,443.772 368.5,446.5C 367.076,444.485 366.41,442.152 366.5,439.5 Z"/></g>
<g><path style="opacity:1" fill="#8a8a8a" d="M 292.5,452.5 C 291.571,456.127 290.737,459.793 290,463.5C 289.617,464.056 289.117,464.389 288.5,464.5C 289.266,460.837 290.1,457.171 291,453.5C 291.383,452.944 291.883,452.611 292.5,452.5 Z"/></g>
<g><path style="opacity:1" fill="#868686" d="M 381.5,464.5 C 382.117,464.611 382.617,464.944 383,465.5C 383.495,467.473 383.662,469.473 383.5,471.5C 382.388,469.401 381.721,467.067 381.5,464.5 Z"/></g>
<g><path style="opacity:1" fill="#adadad" d="M 297.5,463.5 C 297.539,464.756 297.039,465.756 296,466.5C 295.779,470.712 295.612,474.712 295.5,478.5C 294.46,474.22 294.294,469.887 295,465.5C 295.708,464.619 296.542,463.953 297.5,463.5 Z"/></g>
<g><path style="opacity:1" fill="#969696" d="M 827.5,479.5 C 829.795,480.136 831.461,481.469 832.5,483.5C 830.111,483.021 828.444,481.688 827.5,479.5 Z"/></g>
<g><path style="opacity:1" fill="#8f8f8f" d="M 389.5,486.5 C 391.969,487.607 392.969,489.607 392.5,492.5C 390.992,490.819 389.992,488.819 389.5,486.5 Z"/></g>
<g><path style="opacity:1" fill="#6e6e6e" d="M 835.5,485.5 C 836.8,488.024 836.8,490.691 835.5,493.5C 834.264,494.246 832.93,494.579 831.5,494.5C 832.458,493.038 833.624,491.705 835,490.5C 835.494,488.866 835.66,487.199 835.5,485.5 Z"/></g>
<g><path style="opacity:1" fill="#6a6a6a" d="M 456.5,502.5 C 453.763,502.401 451.096,502.735 448.5,503.5C 449.492,501.974 450.992,501.307 453,501.5C 454.385,501.514 455.551,501.848 456.5,502.5 Z"/></g>
<g><path style="opacity:1" fill="#9b9b9b" d="M 406.5,506.5 C 409.152,506.41 411.485,507.076 413.5,508.5C 410.848,508.59 408.515,507.924 406.5,506.5 Z"/></g>
<g><path style="opacity:1" fill="#060606" d="M 526.5,544.5 C 529.066,553.633 533.233,561.966 539,569.5C 539.167,569.167 539.333,568.833 539.5,568.5C 535.25,562.501 531.917,556.001 529.5,549C 528.588,544.554 528.255,540.054 528.5,535.5C 530.279,528.672 534.779,525.005 542,524.5C 548.111,526.304 553.945,528.804 559.5,532C 569.571,543.892 568.571,554.892 556.5,565C 576.386,559.941 589.053,567.275 594.5,587C 594.167,591 592.5,594.333 589.5,597C 580.912,602.691 571.912,603.691 562.5,600C 555.325,593.109 548.991,585.609 543.5,577.5C 542.615,581.601 543.115,585.601 545,589.5C 548.047,599.904 545.047,607.904 536,613.5C 532.764,623.914 530.931,634.58 530.5,645.5C 532.401,660.447 533.901,675.447 535,690.5C 535.831,698.188 535.665,705.855 534.5,713.5C 533.522,713.023 532.689,712.357 532,711.5C 530.325,689.285 528.158,667.118 525.5,645C 525.983,635.019 527.316,625.186 529.5,615.5C 526.179,616.163 522.846,616.83 519.5,617.5C 514.156,614.895 510.656,610.562 509,604.5C 506.996,595.351 509.83,588.184 517.5,583C 523.658,580.179 529.658,577.179 535.5,574C 532.103,574.013 528.77,574.679 525.5,576C 518.5,576.667 511.5,576.667 504.5,576C 493.676,572.187 489.842,564.687 493,553.5C 498.147,542.018 506.98,536.851 519.5,538C 522.331,539.666 524.664,541.832 526.5,544.5 Z"/></g>
<g><path style="opacity:1" fill="#6e6e6e" d="M 264.5,528.5 C 267.096,529.265 269.763,529.599 272.5,529.5C 271.551,530.152 270.385,530.486 269,530.5C 266.992,530.693 265.492,530.026 264.5,528.5 Z"/></g>
<g><path style="opacity:1" fill="#b7b7b7" d="M 242.5,526.5 C 243.738,528.214 244.405,530.214 244.5,532.5C 246.933,532.273 248.599,533.273 249.5,535.5C 247.685,534.37 245.685,533.704 243.5,533.5C 243.007,531.194 242.674,528.861 242.5,526.5 Z"/></g>
<g><path style="opacity:1" fill="#7c7c7c" d="M 528.5,535.5 C 528.255,540.054 528.588,544.554 529.5,549C 531.917,556.001 535.25,562.501 539.5,568.5C 539.333,568.833 539.167,569.167 539,569.5C 533.233,561.966 529.066,553.633 526.5,544.5C 527.167,541.5 527.833,538.5 528.5,535.5 Z"/></g>
<g><path style="opacity:1" fill="#7e7e7e" d="M 544.5,569.5 C 546.975,569.747 546.975,570.413 544.5,571.5C 543.537,571.03 543.537,570.363 544.5,569.5 Z"/></g>
</svg>
