<?xml version="1.0" encoding="UTF-8" standalone="no"?>
<svg
   version="1.1"
   width="593.97498"
   height="389.69519"
   style="clip-rule:evenodd;fill-rule:evenodd;image-rendering:optimizeQuality;shape-rendering:geometricPrecision;text-rendering:geometricPrecision"
   id="svg1230"
   sodipodi:docname="upside down 2.svg"
   inkscape:version="1.1.1 (c3084ef, 2021-09-22)"
   xmlns:inkscape="http://www.inkscape.org/namespaces/inkscape"
   xmlns:sodipodi="http://sodipodi.sourceforge.net/DTD/sodipodi-0.dtd"
   xmlns="http://www.w3.org/2000/svg"
   xmlns:svg="http://www.w3.org/2000/svg">
  <defs
     id="defs1234" />
  <sodipodi:namedview
     id="namedview1232"
     pagecolor="#505050"
     bordercolor="#eeeeee"
     borderopacity="1"
     inkscape:pageshadow="0"
     inkscape:pageopacity="0"
     inkscape:pagecheckerboard="0"
     showgrid="false"
     inkscape:zoom="1.3205347"
     inkscape:cx="276.78182"
     inkscape:cy="154.86151"
     inkscape:window-width="1312"
     inkscape:window-height="847"
     inkscape:window-x="0"
     inkscape:window-y="25"
     inkscape:window-maximized="0"
     inkscape:current-layer="svg1230" />
  <g
     id="g1052"
     transform="translate(-242.5,-323.8048)"
     style="fill:#ffffff" />
  <g
     id="g1056"
     transform="translate(-242.5,-323.8048)"
     style="fill:#ffffff" />
  <g
     id="g1060"
     transform="translate(-242.5,-323.8048)"
     style="fill:#ffffff">
    <path
       style="opacity:1;fill:#ffffff"
       fill="#686868"
       d="m 393.5,329.5 c 1.789,2.652 2.789,5.652 3,9 0,3.667 0,7.333 0,11 -0.623,-6.677 -1.623,-13.344 -3,-20 z"
       id="path1058" />
  </g>
  <g
     id="g1064"
     transform="translate(-242.5,-323.8048)"
     style="fill:#ffffff">
    <path
       style="opacity:1;fill:#ffffff"
       fill="#bdbdbd"
       d="m 396.5,338.5 c 1.147,4.146 1.314,8.48 0.5,13 -0.383,0.556 -0.883,0.889 -1.5,1 0.057,-1.109 0.39,-2.109 1,-3 0,-3.667 0,-7.333 0,-11 z"
       id="path1062" />
  </g>
  <g
     id="g1068"
     transform="translate(-242.5,-323.8048)"
     style="fill:#ffffff">
    <path
       style="opacity:1;fill:#ffffff"
       fill="#a1a1a1"
       d="m 387.5,349.5 c 2.667,2 2.667,4 0,6 0,-2 0,-4 0,-6 z"
       id="path1066" />
  </g>
  <g
     id="g1076"
     transform="translate(-242.5,-323.8048)"
     style="fill:#ffffff" />
  <g
     id="g1084"
     transform="translate(-242.5,-323.8048)"
     style="fill:#ffffff">
    <path
       id="path1082"
       style="opacity:1;fill:#ffffff"
       d="m 545.5,374.5 c -0.163,2.357 0.003,4.69 0.5,7 0.383,0.556 0.883,0.889 1.5,1 0,0.333 0,0.667 0,1 -1.309,2.951 -3.643,4.284 -7,4 -0.399,-5.474 -0.399,-11.14 0,-17 2.844,-0.157 4.511,1.176 5,4 z m 32,-17 c -1.704,3.439 -3.038,7.105 -4,11 -0.969,2.163 -1.802,4.496 -2.5,7 -3.931,5.131 -8.931,8.798 -15,11 -0.167,1.667 -0.333,3.333 -0.5,5 3.152,13.886 5.652,27.886 7.5,42 2.377,14.722 8.543,27.555 18.5,38.5 4.91,2.857 9.91,5.524 15,8 4.942,1.328 9.942,1.661 15,1 1.924,-2.085 2.924,-4.585 3,-7.5 -0.968,-5.324 -1.468,-10.657 -1.5,-16 1.667,-1 3.333,-2 5,-3 7.129,5.735 10.129,13.069 9,22 -0.93,2.052 -2.43,3.552 -4.5,4.5 -10.871,5.273 -21.871,5.273 -33,0 -8.617,-3.284 -15.45,-8.784 -20.5,-16.5 -1.584,-4.766 -3.917,-9.1 -7,-13 -0.926,-6.592 -2.593,-12.925 -5,-19 -0.977,-5.293 -1.477,-10.626 -1.5,-16 -0.308,-3.86 -0.975,-7.526 -2,-11 -1.512,-4.692 -2.845,-9.525 -4,-14.5 -4.802,-0.288 -8.969,1.212 -12.5,4.5 -2.698,7.738 -5.698,15.405 -9,23 -6.489,8.155 -13.323,15.988 -20.5,23.5 -6.551,1.973 -13.218,2.64 -20,2 -2.419,-1.509 -3.419,-3.675 -3,-6.5 5.157,0.42 10.324,0.754 15.5,1 2.321,-0.409 4.487,-1.243 6.5,-2.5 12.297,-11.114 20.631,-24.614 25,-40.5 -7.291,2.057 -14.624,4.224 -22,6.5 -7.026,4.688 -11.192,11.188 -12.5,19.5 -2.713,4.138 -6.547,6.138 -11.5,6 0,-1.667 0,-3.333 0,-5 1.617,-2.689 2.617,-5.689 3,-9 5.039,-4.708 10.039,-9.375 15,-14 10.084,-3.022 20.084,-6.356 30,-10 0.814,-2.266 1.314,-4.6 1.5,-7 0.328,-7.939 0.495,-15.773 0.5,-23.5 2.333,-0.667 4.667,-0.667 7,0 2.684,3.029 5.017,6.362 7,10 -0.333,1 -0.667,2 -1,3 1.457,3.175 2.457,6.509 3,10 1.759,0.798 3.426,0.631 5,-0.5 3.167,-3 6.333,-6 9.5,-9 0.29,-2.42 0.79,-4.754 1.5,-7 1.391,-5.142 2.391,-10.475 3,-16 -0.355,-1.022 -1.022,-1.689 -2,-2 -0.797,-6.652 -1.464,-13.319 -2,-20 3.045,-0.158 5.879,0.509 8.5,2 0.636,3.726 1.803,7.226 3.5,10.5 -0.934,5.785 -1.268,11.618 -1,17.5 z" />
  </g>
  <g
     id="g1092"
     transform="translate(-242.5,-323.8048)"
     style="fill:#ffffff" />
  <g
     id="g1100"
     transform="translate(-242.5,-323.8048)"
     style="fill:#ffffff">
    <path
       style="opacity:1;fill:#ffffff"
       fill="#555555"
       d="m 338.5,393.5 c 1.384,-1.301 2.884,-1.301 4.5,0 1.202,2.177 1.702,4.511 1.5,7 -0.568,-3.568 -2.568,-5.901 -6,-7 z"
       id="path1098" />
  </g>
  <g
     id="g1104"
     transform="translate(-242.5,-323.8048)"
     style="fill:#ffffff">
    <path
       id="path1102"
       style="opacity:1;fill:#ffffff"
       d="m 338.5,393.5 c 3.432,1.099 5.432,3.432 6,7 3.219,0.521 4.219,2.188 3,5 -2.932,1.3 -5.266,3.3 -7,6 -1.506,1.247 -3.006,1.247 -4.5,0 -0.291,-6.38 0.543,-12.38 2.5,-18 z m 55,-64 c 1.377,6.656 2.377,13.323 3,20 -0.61,0.891 -0.943,1.891 -1,3 -1.567,5.753 -2.4,11.753 -2.5,18 -7.708,15.082 -18.042,28.082 -31,39 -0.74,1.249 -0.573,2.249 0.5,3 0.396,3.221 1.729,5.888 4,8 0.838,0.342 1.172,1.008 1,2 2.474,7.422 5.14,14.756 8,22 2.067,6.717 4.067,13.384 6,20 0.221,2.567 0.888,4.901 2,7 1.242,5.41 3.242,10.41 6,15 0.492,2.319 1.492,4.319 3,6 0.79,1.109 1.29,2.442 1.5,4 3.434,4.27 7.601,7.603 12.5,10 2.015,1.424 4.348,2.09 7,2 12.309,2.505 23.975,0.838 35,-5 2.596,-0.765 5.263,-1.099 8,-1 2.318,0.318 3.652,1.652 4,4 -0.536,2.442 -1.369,4.775 -2.5,7 -17.424,12.782 -35.257,13.282 -53.5,1.5 -5.494,-4.495 -10.661,-9.328 -15.5,-14.5 -4.767,-8.544 -8.767,-17.544 -12,-27 -2.633,-9.106 -5.466,-18.106 -8.5,-27 0.329,-2.728 -0.337,-5.062 -2,-7 0.09,-2.652 -0.576,-4.985 -2,-7 -2.513,-4.851 -4.846,-9.851 -7,-15 -1.574,-1.131 -3.241,-1.298 -5,-0.5 -5.195,4.366 -10.195,8.866 -15,13.5 -1.489,3.736 -2.156,7.736 -2,12 -4.543,19.847 -11.376,38.847 -20.5,57 -11.919,18.376 -28.419,30.543 -49.5,36.5 -5.354,0.529 -10.687,0.362 -16,-0.5 -0.901,-2.227 -2.567,-3.227 -5,-3 -0.095,-2.286 -0.762,-4.286 -2,-6 7.805,-13.167 19.305,-20.834 34.5,-23 2.051,-0.077 3.884,0.423 5.5,1.5 -1.29,2.292 -2.957,4.292 -5,6 -5.434,3.468 -10.601,7.301 -15.5,11.5 -0.961,2.875 -0.128,4.875 2.5,6 0.992,1.526 2.492,2.193 4.5,2 1.385,-0.014 2.551,-0.348 3.5,-1 13.206,-4.695 24.04,-12.695 32.5,-24 5.827,-10.32 11.16,-20.987 16,-32 -0.411,-6.018 1.255,-11.352 5,-16 1.744,-7.39 3.577,-14.723 5.5,-22 -1.373,-0.157 -2.707,0.01 -4,0.5 -9.123,6.788 -17.956,13.954 -26.5,21.5 -1.421,1.905 -2.588,3.905 -3.5,6 -0.958,0.453 -1.792,1.119 -2.5,2 -0.706,4.387 -0.54,8.72 0.5,13 -1.319,1.397 -2.986,2.063 -5,2 -2.341,-0.682 -4.674,-1.349 -7,-2 0.894,-5.02 2.561,-9.687 5,-14 0.617,-0.111 1.117,-0.444 1.5,-1 0.737,-3.707 1.571,-7.373 2.5,-11 9.029,-13.542 20.695,-24.375 35,-32.5 2.107,-1.264 3.107,-3.097 3,-5.5 0.85,-9.322 1.017,-18.655 0.5,-28 -0.708,-0.881 -1.542,-1.547 -2.5,-2 -0.137,-5.692 2.529,-8.526 8,-8.5 2.136,4.942 5.136,9.109 9,12.5 1.667,3.333 3.333,6.667 5,10 1.574,1.131 3.241,1.298 5,0.5 8.781,-8.45 17.281,-17.284 25.5,-26.5 1.139,-3.612 2.806,-6.946 5,-10 0.29,-2.42 0.79,-4.754 1.5,-7 2.667,-2 2.667,-4 0,-6 3.076,-7.147 2.243,-13.813 -2.5,-20 -0.833,-4.5 1,-6.333 5.5,-5.5 1.648,1.462 2.648,3.295 3,5.5 z" />
  </g>
  <g
     id="g1108"
     transform="translate(-242.5,-323.8048)"
     style="fill:#ffffff">
    <path
       style="opacity:1;fill:#ffffff"
       fill="#7f7f7f"
       d="m 425.5,395.5 c 1.701,0.711 2.701,2.045 3,4 -1.701,-0.711 -2.701,-2.045 -3,-4 z"
       id="path1106" />
  </g>
  <g
     id="g1112"
     transform="translate(-242.5,-323.8048)"
     style="fill:#ffffff">
    <path
       style="opacity:1;fill:#ffffff"
       fill="#666666"
       d="m 328.5,384.5 c 0.958,0.453 1.792,1.119 2.5,2 0.517,9.345 0.35,18.678 -0.5,28 -1,-6.499 -1,-13.165 0,-20 0.183,-3.596 -0.484,-6.929 -2,-10 z"
       id="path1110" />
  </g>
  <g
     id="g1116"
     transform="translate(-242.5,-323.8048)"
     style="fill:#ffffff">
    <path
       style="opacity:1;fill:#ffffff"
       fill="#ececec"
       d="m 602.5,400.5 c 10.941,0.916 12.608,5.249 5,13 -4.28,1.244 -8.614,1.744 -13,1.5 -1.017,-1.049 -1.184,-2.216 -0.5,-3.5 2.378,-4.126 5.211,-7.792 8.5,-11 z"
       id="path1114" />
  </g>
  <g
     id="g1120"
     transform="translate(-242.5,-323.8048)"
     style="fill:#ffffff">
    <path
       id="path1118"
       style="opacity:1;fill:#ffffff"
       d="m 428.5,411.5 c 0.667,2.333 1.333,4.667 2,7 -0.013,3.363 -1.679,5.53 -5,6.5 -4.313,1.584 -8.646,1.75 -13,0.5 -1.114,-1.223 -1.281,-2.556 -0.5,-4 5.304,-5.609 8.137,-12.276 8.5,-20 2.403,-0.107 4.236,0.893 5.5,3 0.744,2.4 1.577,4.733 2.5,7 z m -3,-16 c 0.299,1.955 1.299,3.289 3,4 2.931,6.127 5.264,12.46 7,19 1.052,0.149 2.052,-0.017 3,-0.5 5.286,-6.074 10.452,-12.241 15.5,-18.5 1.961,-2.635 4.461,-4.469 7.5,-5.5 6.483,-0.979 12.816,-0.479 19,1.5 3.795,3.48 4.461,7.314 2,11.5 -1.735,0.651 -3.402,0.485 -5,-0.5 -1.315,-2.476 -2.982,-4.643 -5,-6.5 -3.667,-0.667 -7.333,-0.667 -11,0 -6.136,5.956 -11.802,12.29 -17,19 -4.948,4.148 -10.282,7.814 -16,11 -3.075,1.007 -6.242,1.507 -9.5,1.5 -4.194,-0.788 -8.36,-1.288 -12.5,-1.5 -3.482,4.993 -8.149,8.16 -14,9.5 -1.432,-0.233 -1.932,-0.9 -1.5,-2 3.812,-3.469 7.645,-6.802 11.5,-10 1.174,-1.014 1.84,-2.347 2,-4 1.294,-0.79 2.461,-1.79 3.5,-3 2.381,-4.266 4.881,-8.432 7.5,-12.5 -1.172,-4.313 -1.172,-8.646 0,-13 -0.836,-2.49 -1.502,-4.99 -2,-7.5 2.084,-0.748 4.084,-0.748 6,0 1.825,2.857 3.825,5.524 6,8 z" />
  </g>
  <g
     id="g1128"
     transform="translate(-242.5,-323.8048)"
     style="fill:#ffffff">
    <path
       id="path1126"
       style="opacity:1;fill:#ffffff"
       d="m 650.5,412.5 c 2.357,-0.163 4.69,0.003 7,0.5 2.791,3.582 4.791,7.582 6,12 -2.218,6.652 -6.551,8.319 -13,5 -5.292,-5.832 -5.292,-11.665 0,-17.5 z m 70,11 c -0.906,2.936 -1.572,5.936 -2,9 -0.251,3.831 0.916,7.164 3.5,10 6.081,3.5 10.081,1.834 12,-5 2.333,-0.913 4.166,-2.413 5.5,-4.5 3,-0.667 6,-0.667 9,0 1.442,0.377 2.442,1.21 3,2.5 0.106,2.579 -0.561,4.912 -2,7 -5.363,2.009 -10.03,5.009 -14,9 1.281,5.064 3.948,9.231 8,12.5 17.267,1.292 34.601,1.959 52,2 5.06,1.181 10.06,2.515 15,4 4.645,3.079 9.645,5.412 15,7 0.566,0.995 1.233,1.828 2,2.5 0.944,2.188 2.611,3.521 5,4 0.79,0.901 1.79,1.568 3,2 0.16,1.699 -0.006,3.366 -0.5,5 -1.376,1.205 -2.542,2.538 -3.5,4 -2.925,0.04 -5.591,-0.793 -8,-2.5 -3.966,-2.964 -7.633,-6.297 -11,-10 -7.788,-5.449 -16.454,-8.449 -26,-9 -13.388,-0.546 -26.721,-1.546 -40,-3 -4.466,-1.734 -8.466,-4.234 -12,-7.5 -2.291,-4.246 -4.291,-8.579 -6,-13 -2.661,-0.832 -5.328,-1.666 -8,-2.5 -3.262,-3.366 -6.262,-6.866 -9,-10.5 -5.302,6.152 -11.969,9.319 -20,9.5 -2.594,-2.086 -4.594,-4.586 -6,-7.5 -1.201,-5.146 -2.535,-10.146 -4,-15 -4.171,0.245 -8.504,-0.089 -13,-1 0.349,8.948 -3.985,13.281 -13,13 -6.638,-0.474 -11.138,-3.808 -13.5,-10 -1.44,-5.695 -0.274,-10.695 3.5,-15 -0.387,-1.22 -1.22,-1.887 -2.5,-2 -8.62,2.666 -16.787,6.166 -24.5,10.5 -8.297,1.351 -16.63,1.684 -25,1 -2.749,-0.364 -4.749,-1.697 -6,-4 2.139,-10.862 2.139,-21.695 0,-32.5 0.256,-1.189 0.589,-2.356 1,-3.5 -0.754,-4.795 -1.254,-9.628 -1.5,-14.5 -3.044,-2.836 -2.211,-3.669 2.5,-2.5 0.833,0.833 1.667,1.667 2.5,2.5 1.463,11.356 1.963,22.689 1.5,34 3.225,-1.022 6.391,-2.356 9.5,-4 3.991,1.108 7.825,2.608 11.5,4.5 3.472,4.311 3.805,8.811 1,13.5 3.068,-0.047 6.068,-0.547 9,-1.5 11.361,-8.586 23.361,-9.586 36,-3 2.214,2.925 4.547,5.759 7,8.5 5.847,2.091 10.847,0.924 15,-3.5 3.368,-1.205 5.702,-0.205 7,3 -2.135,8.053 -1.301,15.886 2.5,23.5 0.893,0.581 1.893,0.915 3,1 2.416,-1.458 4.916,-2.792 7.5,-4 4.16,-5 8.16,-10.166 12,-15.5 2.381,-0.738 4.381,-0.238 6,1.5 z" />
  </g>
  <g
     id="g1212"
     transform="translate(-242.5,-323.8048)"
     style="fill:#ffffff">
    <path
       style="opacity:1;fill:#ffffff"
       fill="#060606"
       d="m 526.5,544.5 c 2.566,9.133 6.733,17.466 12.5,25 0.167,-0.333 0.333,-0.667 0.5,-1 -4.25,-5.999 -7.583,-12.499 -10,-19.5 -0.912,-4.446 -1.245,-8.946 -1,-13.5 1.779,-6.828 6.279,-10.495 13.5,-11 6.111,1.804 11.945,4.304 17.5,7.5 10.071,11.892 9.071,22.892 -3,33 19.886,-5.059 32.553,2.275 38,22 -0.333,4 -2,7.333 -5,10 -8.588,5.691 -17.588,6.691 -27,3 -7.175,-6.891 -13.509,-14.391 -19,-22.5 -0.885,4.101 -0.385,8.101 1.5,12 3.047,10.404 0.047,18.404 -9,24 -3.236,10.414 -5.069,21.08 -5.5,32 1.901,14.947 3.401,29.947 4.5,45 0.831,7.688 0.665,15.355 -0.5,23 -0.978,-0.477 -1.811,-1.143 -2.5,-2 -1.675,-22.215 -3.842,-44.382 -6.5,-66.5 0.483,-9.981 1.816,-19.814 4,-29.5 -3.321,0.663 -6.654,1.33 -10,2 -5.344,-2.605 -8.844,-6.938 -10.5,-13 -2.004,-9.149 0.83,-16.316 8.5,-21.5 6.158,-2.821 12.158,-5.821 18,-9 -3.397,0.013 -6.73,0.679 -10,2 -7,0.667 -14,0.667 -21,0 -10.824,-3.813 -14.658,-11.313 -11.5,-22.5 5.147,-11.482 13.98,-16.649 26.5,-15.5 2.831,1.666 5.164,3.832 7,6.5 z"
       id="path1210" />
  </g>
</svg>
